<svg width="20" height="20" viewBox="0 0 20 20" fill="none" xmlns="http://www.w3.org/2000/svg">
<path fill-rule="evenodd" clip-rule="evenodd" d="M9.75386 -0.000289917C12.2282 -0.000289917 14.2456 2.00257 14.2726 4.47359L14.4918 4.47461C17.2538 4.47461 19.4998 6.71961 19.4998 9.47961V14.9956C19.4998 17.7546 17.2538 19.9996 14.4918 19.9996H5.00776C2.24676 19.9996 -0.000244141 17.7546 -0.000244141 14.9956V9.47961C-0.000244141 6.71961 2.24676 4.47461 5.00776 4.47461L5.21176 4.47371L5.2181 4.27923C5.2809 3.14477 5.74812 2.10404 6.54986 1.31071C7.40786 0.45971 8.55986 0.0347101 9.75386 -0.000289917ZM14.4918 5.97461L14.2728 5.97371L14.2729 7.55571C14.2729 7.96971 13.9369 8.30571 13.5229 8.30571C13.1089 8.30571 12.7729 7.96971 12.7729 7.55571L12.7728 5.97371H6.71076L6.71086 7.55571C6.71086 7.96971 6.37486 8.30571 5.96086 8.30571C5.54686 8.30571 5.21086 7.96971 5.21086 7.55571L5.21076 5.97371L5.00776 5.97461C3.07376 5.97461 1.49976 7.54661 1.49976 9.47961V14.9956C1.49976 16.9276 3.07376 18.4996 5.00776 18.4996H14.4918C16.4258 18.4996 17.9998 16.9276 17.9998 14.9956V9.47961C17.9998 7.54661 16.4258 5.97461 14.4918 5.97461ZM9.75086 1.49971C8.93986 1.52771 8.17986 1.80771 7.60586 2.37571C7.04019 2.93645 6.72314 3.67978 6.71119 4.47361L12.7708 4.47371L12.7677 4.34634C12.6757 2.76151 11.3583 1.49971 9.75086 1.49971Z" fill="#8D8598"/>
</svg>
