<svg width="220" height="47" viewBox="0 0 220 47" fill="none" xmlns="http://www.w3.org/2000/svg">
<rect width="220" height="47.0001" rx="15" fill="#2F293E"/>
<path d="M26.8011 21.3636H27.9943C27.9396 19.8274 26.5227 18.679 24.554 18.679C22.6051 18.679 21.0739 19.8125 21.0739 21.5227C21.0739 22.8949 22.0682 23.7102 23.6591 24.1676L24.9119 24.5256C25.9858 24.8239 26.9403 25.2017 26.9403 26.2159C26.9403 27.3295 25.8665 28.0653 24.4545 28.0653C23.2415 28.0653 22.1676 27.5284 22.0682 26.375H20.7955C20.9148 28.0455 22.267 29.179 24.4545 29.179C26.8011 29.179 28.1335 27.8864 28.1335 26.2358C28.1335 24.3267 26.3239 23.7102 25.2699 23.4318L24.2358 23.1534C23.4801 22.9545 22.267 22.5568 22.267 21.4631C22.267 20.4886 23.1619 19.7727 24.5142 19.7727C25.7472 19.7727 26.6818 20.3594 26.8011 21.3636ZM33.2033 29.1591C34.7544 29.1591 35.888 28.3835 36.2459 27.2301L35.1124 26.9119C34.8141 27.7074 34.123 28.1051 33.2033 28.1051C31.8262 28.1051 30.8766 27.2152 30.8219 25.5795H36.3652V25.0824C36.3652 22.2386 34.6749 21.2642 33.084 21.2642C31.0158 21.2642 29.6436 22.8949 29.6436 25.2415C29.6436 27.5881 30.9959 29.1591 33.2033 29.1591ZM30.8219 24.5653C30.9015 23.3771 31.7417 22.3182 33.084 22.3182C34.3567 22.3182 35.1721 23.2727 35.1721 24.5653H30.8219ZM40.3972 29.179C41.7296 29.179 42.4256 28.4631 42.6642 27.9659H42.7239V29H43.8972V23.9688C43.8972 21.5426 42.0478 21.2642 41.0733 21.2642C39.9199 21.2642 38.6074 21.6619 38.0108 23.054L39.1245 23.4517C39.383 22.8949 39.9945 22.2983 41.1131 22.2983C42.1919 22.2983 42.7239 22.87 42.7239 23.8494V23.8892C42.7239 24.456 42.1472 24.4062 40.7551 24.5852C39.3382 24.7692 37.7921 25.0824 37.7921 26.8324C37.7921 28.3239 38.9455 29.179 40.3972 29.179ZM40.5762 28.125C39.6415 28.125 38.9654 27.7074 38.9654 26.892C38.9654 25.9972 39.7807 25.7188 40.6955 25.5994C41.1926 25.5398 42.525 25.4006 42.7239 25.1619V26.2358C42.7239 27.1903 41.9682 28.125 40.5762 28.125ZM46.0387 29H47.212V24.1676C47.212 23.1335 48.0273 22.3778 49.141 22.3778C49.4542 22.3778 49.7773 22.4375 49.8569 22.4574V21.2642C49.7227 21.2543 49.4144 21.2443 49.2404 21.2443C48.3256 21.2443 47.5302 21.7614 47.2518 22.517H47.1722V21.3636H46.0387V29ZM54.1175 29.1591C55.8079 29.1591 56.9215 28.125 57.1204 26.7727H55.9471C55.7283 27.608 55.0323 28.1051 54.1175 28.1051C52.7255 28.1051 51.8306 26.9517 51.8306 25.1818C51.8306 23.4517 52.7454 22.3182 54.1175 22.3182C55.1516 22.3182 55.7681 22.9545 55.9471 23.6506H57.1204C56.9215 22.2188 55.7085 21.2642 54.0977 21.2642C52.0295 21.2642 50.6573 22.8949 50.6573 25.2216C50.6573 27.5085 51.9698 29.1591 54.1175 29.1591ZM60.0089 24.4062C60.0089 23.0739 60.859 22.3182 62.0174 22.3182C63.1211 22.3182 63.7873 23.0142 63.7873 24.2273V29H64.9606V24.1477C64.9606 22.1839 63.9165 21.2642 62.3555 21.2642C61.1523 21.2642 60.4663 21.7663 60.1083 22.5568H60.0089V18.8182H58.8356V29H60.0089V24.4062Z" fill="#E2D8FD"/>
<path fill-rule="evenodd" clip-rule="evenodd" d="M193.595 25.5271C194.136 24.5232 194.443 23.3766 194.443 22.1589C194.443 18.2052 191.21 15 187.221 15C183.233 15 180 18.2052 180 22.1589C180 26.1127 183.233 29.3178 187.221 29.3178C189.26 29.3178 191.102 28.4802 192.415 27.1331L198.304 31.7766C198.738 32.1185 199.388 32.0618 199.756 31.6498C200.123 31.2379 200.07 30.6268 199.636 30.2848L193.671 25.5817C193.646 25.5622 193.621 25.544 193.595 25.5271ZM187.221 28.2451C183.831 28.2451 181.082 25.5202 181.082 22.1589C181.082 18.7976 183.831 16.0727 187.221 16.0727C190.612 16.0727 193.361 18.7976 193.361 22.1589C193.361 25.5202 190.612 28.2451 187.221 28.2451Z" fill="#E2D8FD"/>
</svg>
