<svg width="49" height="49" viewBox="0 0 49 49" fill="none" xmlns="http://www.w3.org/2000/svg">
<rect x="1" y="1" width="47" height="47" rx="23.5" fill="#2B2638"/>
<path fill-rule="evenodd" clip-rule="evenodd" d="M23.0338 32.4305C23.487 32.9594 24.0689 33.25 24.6726 33.25H24.6735C25.2799 33.25 25.8644 32.9594 26.3185 32.4296C26.5618 32.1482 26.9765 32.1252 27.2451 32.3792C27.5146 32.6331 27.5365 33.0685 27.2941 33.3499C26.5871 34.1722 25.657 34.625 24.6735 34.625H24.6718C23.6909 34.6241 22.7625 34.1712 22.0581 33.349C21.8158 33.0676 21.8376 32.6322 22.1071 32.3792C22.3766 32.1243 22.7914 32.1472 23.0338 32.4305ZM24.7162 14.9167C28.6056 14.9167 31.2183 18.0902 31.2183 21.0537C31.2183 22.5782 31.5885 23.2244 31.9813 23.9101C32.3698 24.5866 32.81 25.3547 32.81 26.8067C32.5046 30.5165 28.8077 30.819 24.7162 30.819C20.6247 30.819 16.927 30.5165 16.6251 26.8654C16.6225 25.3547 17.0626 24.5866 17.4511 23.9101L17.5882 23.6682C17.9259 23.0602 18.2141 22.3988 18.2141 21.0537C18.2141 18.0902 20.8268 14.9167 24.7162 14.9167ZM24.7162 16.2917C21.6581 16.2917 19.5266 18.8015 19.5266 21.0537C19.5266 22.9595 19.0217 23.8404 18.5755 24.6177C18.2176 25.242 17.935 25.7352 17.935 26.8067C18.0811 28.5356 19.1705 29.444 24.7162 29.444C30.2313 29.444 31.3548 28.4952 31.5001 26.7472C31.4975 25.7352 31.2148 25.242 30.857 24.6177C30.4107 23.8404 29.9058 22.9595 29.9058 21.0537C29.9058 18.8015 27.7743 16.2917 24.7162 16.2917Z" fill="#E2D8FD"/>
<circle cx="39" cy="6" r="3" fill="#E9001C"/>
<rect x="1" y="1" width="47" height="47" rx="23.5" stroke="#D9CBFF" stroke-opacity="0.4"/>
</svg>
