<svg width="21" height="22" viewBox="0 0 21 22" fill="none" xmlns="http://www.w3.org/2000/svg">
<path fill-rule="evenodd" clip-rule="evenodd" d="M8.14724 4.2035C8.58024 4.5435 8.82924 5.0505 8.82924 5.5945C8.82924 9.9795 8.97725 11.1595 9.58224 11.6085C9.97925 11.9015 10.5232 11.8985 12.3562 11.8475C13.2082 11.8225 14.2992 11.7905 15.7282 11.7905C16.2982 11.7905 16.8352 12.0345 17.1992 12.4595C17.5372 12.8545 17.6852 13.3705 17.6072 13.8785C16.9392 18.2035 13.2592 21.3445 8.85724 21.3445C3.97324 21.3445 0.000244141 17.3715 0.000244141 12.4885C0.000244141 8.6165 2.92824 4.7445 6.52724 3.8585C7.08924 3.7215 7.69324 3.8495 8.14724 4.2035ZM6.98224 5.3035C6.95024 5.3035 6.91824 5.3075 6.88624 5.3155C3.91624 6.0465 1.50024 9.2645 1.50024 12.4885C1.50024 16.5445 4.80024 19.8445 8.85724 19.8445C12.5142 19.8445 15.5702 17.2395 16.1242 13.6495C16.1282 13.6195 16.1422 13.5325 16.0602 13.4355C15.9822 13.3445 15.8582 13.2905 15.7282 13.2905C14.3172 13.2905 13.2402 13.3225 12.3992 13.3465C10.3632 13.4075 9.52124 13.4305 8.68924 12.8135C7.49955 11.9321 7.34313 10.4504 7.33022 6.29254L7.32924 5.5945C7.32924 5.5105 7.29324 5.4405 7.22124 5.3845C7.15424 5.3315 7.06924 5.3035 6.98224 5.3035ZM18.0506 2.7338C19.8086 4.4908 20.9246 6.7998 20.8926 8.6168C20.8806 9.3258 20.3656 9.9178 19.6696 10.0228C18.3116 10.2278 16.7216 10.2898 15.3146 10.2898C14.0046 10.2898 12.8516 10.2368 12.1886 10.1988C11.3546 10.1498 10.6906 9.4848 10.6426 8.6508C10.5646 7.3288 10.3956 3.9698 10.5156 1.3718C10.5486 0.616803 11.1586 0.0158026 11.9046 0.0028026C14.0416 -0.0591974 16.2466 0.932803 18.0506 2.7338ZM12.0326 1.5018H12.0106C11.9006 4.0208 12.0636 7.2748 12.1396 8.5638C12.1436 8.6408 12.1996 8.6968 12.2756 8.7008C13.3036 8.7598 16.8456 8.9238 19.3927 8.5488C19.3986 7.1448 18.4376 5.2408 16.9906 3.7948C15.5066 2.3128 13.7506 1.5018 12.0326 1.5018Z" fill="#8D8598"/>
</svg>
