<svg width="61" height="58" viewBox="0 0 61 58" fill="none" xmlns="http://www.w3.org/2000/svg">
<rect width="61" height="58" rx="13" fill="#372C44"/>
<path fill-rule="evenodd" clip-rule="evenodd" d="M32.0028 32.62C33.2361 32.62 34.24 33.6154 34.24 34.8389V37.9857C34.24 38.2486 34.4511 38.4594 34.7215 38.4655H36.674C38.2126 38.4655 39.4634 37.2317 39.4634 35.7157V26.7909C39.4562 26.2692 39.2073 25.7782 38.7801 25.4518L32.0263 20.0729C31.1198 19.3557 29.8516 19.3557 28.9419 20.0749L22.2342 25.4498C21.7906 25.7864 21.5417 26.2774 21.5366 26.8083V35.7157C21.5366 37.2317 22.7874 38.4655 24.326 38.4655H26.2969C26.5745 38.4655 26.7999 38.2455 26.7999 37.9755C26.7999 37.9161 26.8071 37.8568 26.8194 37.8005V34.8389C26.8194 33.6226 27.8171 32.6282 29.0413 32.62H32.0028ZM36.674 40H34.7031C33.5742 39.9734 32.7035 39.0885 32.7035 37.9857V34.8389C32.7035 34.4614 32.389 34.1545 32.0028 34.1545H29.0464C28.6684 34.1566 28.356 34.4645 28.356 34.8389V37.9755C28.356 38.0522 28.3457 38.1259 28.3242 38.1954C28.2136 39.2082 27.3469 40 26.2969 40H24.326C21.9402 40 20 38.0778 20 35.7157V26.8012C20.0102 25.7843 20.4794 24.8534 21.2897 24.2406L27.9841 18.8749C29.4582 17.7087 31.5121 17.7087 32.9831 18.8729L39.7257 24.2437C40.5175 24.8462 40.9867 25.7751 41 26.7797V35.7157C41 38.0778 39.0598 40 36.674 40Z" fill="#D8BCFF"/>
</svg>
