<svg width="16" height="17" viewBox="0 0 16 17" fill="none" xmlns="http://www.w3.org/2000/svg">
<path d="M8.32325 11.8709C8.14472 12.0494 7.85528 12.0494 7.67675 11.8709L4.76751 8.96163C4.58899 8.7831 4.58899 8.49366 4.76751 8.31513C4.94604 8.13661 5.23548 8.13661 5.41401 8.31513L8 10.9011L10.586 8.31513C10.7645 8.1366 11.054 8.1366 11.2325 8.31513C11.411 8.49366 11.411 8.7831 11.2325 8.96163L8.32325 11.8709ZM7.54286 5.45238C7.54286 5.19991 7.74753 4.99524 8 4.99524C8.25247 4.99524 8.45714 5.19991 8.45714 5.45238L7.54286 5.45238ZM7.54286 11.5476L7.54286 5.45238L8.45714 5.45238L8.45714 11.5476L7.54286 11.5476Z" fill="#E72D04"/>
<rect x="0.380952" y="-0.380952" width="15.2381" height="15.2381" rx="7.61905" transform="matrix(1 0 0 -1 0 15.7381)" stroke="#E72D04" stroke-width="0.761905"/>
</svg>
