<svg width="24" height="24" viewBox="0 0 24 24" fill="none" xmlns="http://www.w3.org/2000/svg">
<path fill-rule="evenodd" clip-rule="evenodd" d="M12.6918 2C10.2458 2 8.25575 3.99 8.25575 6.436V7.368C8.25575 7.782 8.59175 8.118 9.00575 8.118C9.41975 8.118 9.75575 7.782 9.75575 7.368V6.436C9.75575 4.816 11.0728 3.5 12.6918 3.5H17.5668C19.1838 3.5 20.4998 4.816 20.4998 6.436V17.565C20.4998 19.184 19.1838 20.5 17.5668 20.5H12.6808C11.0688 20.5 9.75575 19.188 9.75575 17.576V16.633C9.75575 16.219 9.41975 15.883 9.00575 15.883C8.59175 15.883 8.25575 16.219 8.25575 16.633V17.576C8.25575 20.016 10.2418 22 12.6808 22H17.5668C20.0108 22 21.9998 20.011 21.9998 17.565V6.436C21.9998 3.99 20.0108 2 17.5668 2H12.6918ZM4.61165 8.554L1.68365 11.469C1.65753 11.4949 1.63414 11.5219 1.61274 11.5504L1.68365 11.469C1.64822 11.5039 1.61671 11.5421 1.58938 11.5828C1.57734 11.6012 1.56574 11.6203 1.55498 11.6399C1.54626 11.6552 1.53822 11.6712 1.53078 11.6875C1.52446 11.7018 1.5184 11.7162 1.51278 11.7308C1.50525 11.7498 1.49864 11.7693 1.49285 11.7891C1.48849 11.8047 1.48448 11.8203 1.48096 11.836C1.4765 11.8551 1.47298 11.8743 1.47021 11.8937C1.46865 11.9063 1.46711 11.9195 1.46593 11.9328C1.46364 11.9556 1.46265 11.9777 1.46265 12L1.46775 12.062L1.4698 12.1017C1.47004 12.1034 1.47027 12.1051 1.47051 12.1068L1.46265 12C1.46265 12.0555 1.4688 12.1105 1.48075 12.1639C1.48448 12.1797 1.48849 12.1953 1.49298 12.2107C1.49864 12.2307 1.50525 12.2502 1.51264 12.2695C1.5184 12.2838 1.52446 12.2982 1.53095 12.3123C1.53822 12.3288 1.54625 12.3448 1.55486 12.3605C1.56574 12.3797 1.57734 12.3988 1.58975 12.4172C1.59677 12.4282 1.60447 12.439 1.61247 12.4497C1.63628 12.481 1.66222 12.5104 1.6903 12.5377L4.61165 15.447C4.75765 15.593 4.94965 15.666 5.14065 15.666C5.33265 15.666 5.52565 15.593 5.67165 15.445C5.96365 15.151 5.96265 14.677 5.66965 14.385L4.02975 12.75H14.254C14.668 12.75 15.004 12.414 15.004 12C15.004 11.586 14.668 11.25 14.254 11.25H4.02775L5.66965 9.616C5.96265 9.324 5.96465 8.85 5.67165 8.556C5.37965 8.262 4.90565 8.262 4.61165 8.554Z" fill="#8D8598"/>
</svg>
