<svg width="16" height="17" viewBox="0 0 16 17" fill="none" xmlns="http://www.w3.org/2000/svg">
<path d="M8.32325 5.12913C8.14472 4.95061 7.85528 4.95061 7.67675 5.12913L4.76751 8.03837C4.58899 8.2169 4.58899 8.50634 4.76751 8.68487C4.94604 8.86339 5.23548 8.86339 5.41401 8.68487L8 6.09888L10.586 8.68487C10.7645 8.8634 11.054 8.8634 11.2325 8.68487C11.411 8.50634 11.411 8.2169 11.2325 8.03837L8.32325 5.12913ZM7.54286 11.5476C7.54286 11.8001 7.74753 12.0048 8 12.0048C8.25247 12.0048 8.45714 11.8001 8.45714 11.5476L7.54286 11.5476ZM7.54286 5.45238L7.54286 11.5476L8.45714 11.5476L8.45714 5.45238L7.54286 5.45238Z" fill="#00C287"/>
<rect x="0.380952" y="0.880952" width="15.2381" height="15.2381" rx="7.61905" stroke="#00C287" stroke-width="0.761905"/>
</svg>
