<svg width="8" height="9" viewBox="0 0 8 9" fill="none" xmlns="http://www.w3.org/2000/svg">
<path d="M4.32325 1.12913C4.14472 0.950607 3.85528 0.950607 3.67675 1.12913L0.767511 4.03837C0.588986 4.2169 0.588986 4.50634 0.767511 4.68487C0.946037 4.86339 1.23548 4.86339 1.41401 4.68487L4 2.09888L6.58599 4.68487C6.76452 4.8634 7.05396 4.8634 7.23249 4.68487C7.41101 4.50634 7.41101 4.2169 7.23249 4.03837L4.32325 1.12913ZM3.54286 7.54762C3.54286 7.80009 3.74753 8.00476 4 8.00476C4.25247 8.00476 4.45714 7.80009 4.45714 7.54762L3.54286 7.54762ZM3.54286 1.45238L3.54286 7.54762L4.45714 7.54762L4.45714 1.45238L3.54286 1.45238Z" fill="#00C287"/>
</svg>
